<svg xmlns="http://www.w3.org/2000/svg" xmlns:xlink="http://www.w3.org/1999/xlink" viewBox="0 0 93.125 104.125" fill="#fff" fill-rule="evenodd" stroke="#000" stroke-linecap="round" stroke-linejoin="round"><use xlink:href="#A" x="2.083" y="2.083"/><symbol id="A" overflow="visible"><g stroke="none" fill-rule="nonzero"><path d="M3.815 44.046a3.14 3.14 0 0 1 3.148-3.148 3.14 3.14 0 1 1 0 6.296 3.14 3.14 0 0 1-3.148-3.148z"/><path d="M8.606 57.441v36.61c0 2.298 3.952 6.25 6.25 6.25l70.077.483c2.296 0 4.742-4.437 4.742-6.733v-36.61H8.606zM60.244 6.406l14.9 7.681 5.313-2.042-14.902-7.683zm-2.942 15.042l-16.014-8.271-5.708 2.188 16.042 8.275zm-37.244-.131l-7.179 3.438 13.931 8.342 9.133-3.429zM35.002 44.75h-7.489L16.887 56.697h7.49zm24.931-.725h-6.042L41.954 57.42h6.042zm7.004 13.396h6.042l11.938-13.396h-6.042z" fill="#3f3f3f"/><path d="M64.318 56.436l10.14-11.381h-11.91l-10.14 11.381zm13.254.179h11.181v-12.55z"/><use xlink:href="#C" fill="#3f3f3f"/><path d="M8.479 50.156v6.967h6.875l11.333-12.721H12.973a10.06 10.06 0 0 1-4.475 5.754zm30.84 6.283l10.11-11.348H37.554l-10.11 11.348zM69.735 2.877l7.598 3.917L75.041.835zM57.408 7.46l-13.083 5.029 15 7.75 13.1-5.035zm-23.985 9.471l-11.321 4.35 14.24 7.5 11.462-4.404zm-22.842 8.85L.256 29.75l3.219 8.375c.7-.177 1.419-.27 2.142-.277a9.08 9.08 0 0 1 3.829.865c.108-.062.192-.152.313-.198l14.469-5.562-13.646-7.167z"/></g><g fill="none" stroke-width="4.167"><path d="M11.006 39.204l69.473-26.698L75.673 0 0 29.083 3.621 38.5m4.985 18.942v36.61a6.25 6.25 0 0 0 6.25 6.25h68.567a6.25 6.25 0 0 0 6.25-6.25v-36.61H8.606z"/><path d="M13.416 44.044h76.256V57.44m-81.067-.721v-6.458m6.485 7.181h9.756l11.938-13.396h-9.756zm25 0h9.756l11.938-13.396h-9.756zm25 0h9.756l11.937-13.396h-9.756z"/><use xlink:href="#C" y="-0.002"/><path d="M73.798 15.123L57.85 6.9l9.104-3.5 12.504 6.448M58.985 20.781l-9.104 3.542-15.944-8.233 9.11-3.494zm-23.062 8.902l-9.133 3.429-15.885-8.346 9.133-3.431z"/></g></symbol><defs ><path id="C" d="M1.729 44.045a5.22 5.22 0 0 1 5.233-5.233 5.22 5.22 0 1 1 0 10.467 5.22 5.22 0 0 1-5.233-5.233z"/></defs></svg>